<svg width="3024" height="2253" viewBox="0 0 3024 2253" fill="none" xmlns="http://www.w3.org/2000/svg">
<g filter="url(#filter0_d)">
<path d="M745.636 1021.62L742.005 1017.13C756.876 1005.08 772.783 994.013 789.325 984.214L792.264 989.171C775.895 998.855 760.218 1009.75 745.636 1021.62Z" fill="#EF6D77"/>
<path d="M627.254 1186.36L621.836 1184.34C641.374 1132.06 672.613 1083.52 712.152 1043.98L716.244 1048.08C677.339 1087.04 646.562 1134.88 627.254 1186.36Z" fill="#EF6D77"/>
<path d="M1743.9 1440.44C1742.51 1272.01 1605.63 1135.98 1436.87 1135.98C1396.24 1135.98 1357.45 1143.94 1321.94 1158.29C1261.66 1034.94 1134.97 949.917 988.402 949.917C811.171 949.917 663.045 1074.25 626.216 1240.37C459.532 1251.09 327.66 1389.6 327.66 1559.01C327.66 1735.39 470.656 1878.39 647.023 1878.39H1663.26C1788.28 1878.39 1889.66 1777 1889.66 1651.98C1889.72 1555.37 1829.14 1472.95 1743.9 1440.44Z" fill="#EF6D77"/>
<path d="M1515.31 1337.21H702.064C688.347 1337.21 677.108 1325.97 677.108 1312.25C677.108 1298.53 688.347 1287.29 702.064 1287.29H1515.31C1529.03 1287.29 1540.27 1298.53 1540.27 1312.25C1540.27 1325.97 1529.03 1337.21 1515.31 1337.21Z" fill="#2B3A41"/>
<path d="M1392.66 1674.98H824.775C778.493 1674.98 740.856 1637.34 740.856 1591.05C740.856 1544.77 778.493 1507.13 824.775 1507.13H1392.66C1438.95 1507.13 1476.58 1544.77 1476.58 1591.05C1476.58 1637.34 1438.89 1674.98 1392.66 1674.98ZM824.717 1512.89C781.605 1512.89 746.562 1547.94 746.562 1591.05C746.562 1634.17 781.605 1669.21 824.717 1669.21H1392.61C1435.72 1669.21 1470.76 1634.17 1470.76 1591.05C1470.76 1547.94 1435.72 1512.89 1392.61 1512.89H824.717Z" fill="white"/>
<path d="M957.396 1654.8H824.775C789.732 1654.8 761.029 1626.1 761.029 1591.05C761.029 1556.01 789.732 1527.3 824.775 1527.3H957.396C992.439 1527.3 1021.14 1556.01 1021.14 1591.05C1021.14 1626.1 992.439 1654.8 957.396 1654.8Z" fill="white"/>
<path d="M1538.54 852.676L1430.7 1312.25H787.366L967.306 545.279L1412.78 649.839L1538.54 852.676Z" fill="#EF6D77"/>
<path opacity="0.8" d="M1538.54 852.676L1430.7 1312.25H787.366L967.306 545.279L1412.78 649.839L1538.54 852.676Z" fill="white"/>
<path d="M1454.62 938.1L965.98 823.453C958.949 821.781 954.568 814.749 956.24 807.717C957.911 800.685 964.943 796.304 971.974 797.976L1460.61 912.623C1467.65 914.295 1472.03 921.327 1470.35 928.359C1468.68 935.391 1461.65 939.772 1454.62 938.1Z" fill="#EF6D77"/>
<path d="M1435.95 1017.64L947.305 902.996C940.273 901.324 935.893 894.292 937.564 887.26C939.236 880.228 946.268 875.847 953.299 877.519L1441.94 992.166C1448.97 993.838 1453.35 1000.87 1451.68 1007.9C1450.07 1014.88 1442.98 1019.31 1435.95 1017.64Z" fill="#EF6D77"/>
<path d="M1417.27 1097.19L928.635 982.54C921.603 980.868 917.223 973.836 918.894 966.804C920.566 959.771 927.597 955.391 934.629 957.062L1423.27 1071.71C1430.3 1073.38 1434.68 1080.41 1433.01 1087.45C1431.4 1094.42 1424.31 1098.8 1417.27 1097.19Z" fill="#EF6D77"/>
<path d="M1398.66 1176.73L910.016 1062.09C902.984 1060.42 898.604 1053.38 900.275 1046.35C901.947 1039.32 908.978 1034.94 916.01 1036.61L1404.65 1151.26C1411.68 1152.93 1416.06 1159.96 1414.39 1166.99C1412.72 1173.97 1405.63 1178.35 1398.66 1176.73Z" fill="#EF6D77"/>
<path d="M1185.69 1210.68L891.284 1141.63C884.252 1139.96 879.872 1132.93 881.543 1125.89C883.215 1118.86 890.247 1114.48 897.278 1116.15L1191.68 1185.21C1198.72 1186.88 1203.1 1193.91 1201.42 1200.94C1199.81 1207.92 1192.72 1212.3 1185.69 1210.68Z" fill="#EF6D77"/>
<path d="M1538.54 852.675L1374.22 814.113L1412.78 649.837L1538.54 852.675Z" fill="#EF6D77"/>
</g>
<g filter="url(#filter1_d)">
<path d="M1648.91 1289.07L1512.32 2187.69H1539.29L1557.39 2068.78H1905.39L1887.3 2187.69H1914.27L2050.87 1289.07H1648.91ZM1908.97 2044.97H1560.96L1580.33 1917.47H1928.33L1908.97 2044.97ZM1931.96 1893.67H1583.96L1603.32 1766.17H1951.33L1931.96 1893.67ZM1954.96 1742.36H1606.95L1626.32 1614.86H1974.33L1954.96 1742.36ZM1978.02 1591.05H1630.01L1649.37 1463.55H1997.38L1978.02 1591.05ZM1653.01 1439.75L1672.37 1312.25H2020.38L2001.01 1439.75H1653.01Z" fill="#2B3A41"/>
<path d="M2107.06 1289.07H1705.11L1841.71 2187.69H1868.68L1850.58 2068.78H2198.59L2216.69 2187.69H2243.66L2107.06 1289.07ZM1735.6 1312.25H2083.61L2102.97 1439.75H1754.96L1735.6 1312.25ZM1758.6 1463.55H2106.6L2125.97 1591.05H1777.96L1758.6 1463.55ZM1781.59 1614.86H2129.6L2148.97 1742.36H1800.96L1781.59 1614.86ZM1804.59 1766.17H2152.6L2171.96 1893.67H1823.96L1804.59 1766.17ZM1846.95 2044.97L1827.59 1917.47H2175.59L2194.96 2044.97H1846.95Z" fill="#2B3A41"/>
<path opacity="0.4" d="M2107.06 1289.07H1705.11L1841.71 2187.69H1868.68L1850.58 2068.78H2198.59L2216.69 2187.69H2243.66L2107.06 1289.07ZM1735.6 1312.25H2083.61L2102.97 1439.75H1754.96L1735.6 1312.25ZM1758.6 1463.55H2106.6L2125.97 1591.05H1777.96L1758.6 1463.55ZM1781.59 1614.86H2129.6L2148.97 1742.36H1800.96L1781.59 1614.86ZM1804.59 1766.17H2152.6L2171.96 1893.67H1823.96L1804.59 1766.17ZM1846.95 2044.97L1827.59 1917.47H2175.59L2194.96 2044.97H1846.95Z" fill="white"/>
<path d="M1934.85 414.321C1946.37 423.197 1956.52 432.132 1967.07 441.297C1977.5 450.404 1987.58 459.972 1997.5 469.771C2017.32 489.311 2036.23 510.062 2053.75 532.715L2060.21 541.418L2063.43 545.742C2065.28 548.278 2067.01 551.102 2068.33 553.754C2073.87 564.59 2075.54 574.619 2076.29 583.611C2077.5 601.538 2074.79 616.697 2071.39 631.223C2064.18 660.101 2053.35 685.635 2039.46 710.767L2010 698.777C2015.6 673.704 2020.61 647.42 2022.51 623.153C2023.43 611.106 2023.32 599.174 2021.47 590.24C2020.55 585.859 2019 582.574 2018.02 581.536C2017.79 581.248 2017.61 581.248 2017.44 581.075L2014.33 577.559L2008.16 570.469C1991.1 551.794 1972.66 533.579 1953.41 516.057C1934.39 498.476 1914.21 480.896 1894.85 464.583L1934.85 414.321Z" fill="#FFD2C8"/>
<path d="M2021.65 686.786L1988.56 709.611L2029.14 734.051C2029.14 734.051 2049.95 714.165 2041.01 695.662L2021.65 686.786Z" fill="#FFD2C8"/>
<path d="M1972.02 747.712L2002.57 764.889L2029.08 734.051L1988.51 709.611L1972.02 747.712Z" fill="#FFD2C8"/>
<path d="M1709.2 293.909C1710.18 297.655 1708.97 301.171 1706.49 301.805C1704.07 302.439 1701.31 299.903 1700.33 296.214C1699.35 292.468 1700.56 288.951 1703.04 288.317C1705.46 287.626 1708.22 290.162 1709.2 293.909Z" fill="#2B3A41"/>
<path d="M1709.26 301.055C1709.26 301.055 1706.32 324.745 1699.63 337.484C1707.82 341.922 1718.31 336.273 1718.31 336.273L1709.26 301.055Z" fill="#FFD2C8"/>
<path d="M1717.1 269.872C1716.64 269.987 1716.18 269.987 1715.72 269.814C1706.32 266.125 1699.52 270.91 1699.4 270.967C1698.37 271.717 1696.98 271.428 1696.23 270.448C1695.49 269.411 1695.77 268.028 1696.75 267.278C1697.1 267.048 1705.69 261.053 1717.33 265.607C1718.48 266.068 1719.06 267.394 1718.6 268.546C1718.37 269.18 1717.79 269.699 1717.1 269.872Z" fill="#2B3A41"/>
<path d="M1827.36 304.342C1832.72 339.503 1840.27 393.397 1871.16 407.057C1871.16 407.057 1874.16 443.602 1813.18 465.563C1746.09 489.714 1769.14 443.775 1769.14 443.775C1802.63 421.871 1791.91 395.011 1776.35 371.781L1827.36 304.342Z" fill="#FFD2C8"/>
<path d="M1876.92 399.735C1877.1 388.726 1865.69 369.647 1854.33 370.915C1841.82 372.298 1794.1 389.936 1776.7 406.018C1759.29 422.1 1771.62 450.286 1771.62 450.286L1876.92 399.735Z" fill="#2B3A41"/>
<path d="M2244.93 1732.1C2241.93 1735.21 2238.53 1737.8 2235.82 1737.46C2234.73 1737.34 2233.23 1736.65 2232.42 1734.12C2232.02 1732.79 2232.19 1731.46 2232.94 1730.25C2236.17 1724.78 2250.06 1721.95 2250.69 1721.84C2251.1 1721.78 2251.5 1721.9 2251.73 1722.24C2251.96 1722.59 2251.96 1722.99 2251.79 1723.34C2250.64 1725.3 2247.98 1728.99 2244.93 1732.1ZM2235.48 1730.31C2235.19 1730.66 2234.9 1730.95 2234.73 1731.29C2234.27 1732.04 2234.15 1732.79 2234.44 1733.54C2235.02 1735.33 2235.88 1735.44 2236.17 1735.5C2239.11 1735.85 2245.16 1729.68 2248.79 1724.37C2244.58 1725.41 2238.13 1727.54 2235.48 1730.31Z" fill="#EF6D77"/>
<path d="M2251.62 1723.57C2251.5 1723.68 2251.39 1723.8 2251.21 1723.8C2246.43 1725.3 2233.92 1724.95 2231.15 1721.03C2230.64 1720.34 2230 1718.84 2231.5 1716.88C2232.42 1715.61 2233.75 1714.92 2235.42 1714.69C2241.7 1713.94 2251.21 1721.72 2251.62 1722.07C2251.9 1722.3 2252.02 1722.65 2251.96 1723.05C2251.85 1723.22 2251.73 1723.4 2251.62 1723.57ZM2233.34 1717.75C2233.23 1717.86 2233.11 1717.98 2233.06 1718.09C2232.25 1719.13 2232.6 1719.65 2232.77 1719.82C2234.38 1722.13 2243.2 1723.17 2248.62 1722.3C2245.74 1720.17 2239.63 1716.19 2235.59 1716.65C2234.67 1716.82 2233.92 1717.17 2233.34 1717.75Z" fill="#EF6D77"/>
<path d="M1896.29 1852.63C1890.87 1852.63 1885.63 1851.88 1883.84 1849.46C1883.21 1848.59 1882.75 1847.15 1883.9 1845.08C1884.59 1843.93 1885.63 1843.12 1887.07 1842.71C1894.1 1840.81 1908.91 1849.23 1909.55 1849.57C1909.89 1849.8 1910.12 1850.21 1910.01 1850.61C1909.95 1851.01 1909.6 1851.36 1909.2 1851.42C1906.61 1851.94 1901.36 1852.63 1896.29 1852.63ZM1889.6 1844.39C1888.91 1844.39 1888.22 1844.44 1887.64 1844.62C1886.72 1844.85 1886.09 1845.31 1885.68 1846C1884.99 1847.27 1885.22 1847.84 1885.51 1848.19C1887.47 1850.9 1898.19 1851.01 1906.03 1849.86C1902.11 1847.9 1894.5 1844.39 1889.6 1844.39Z" fill="#EF6D77"/>
<path d="M1909.08 1851.42C1908.97 1851.42 1908.79 1851.36 1908.68 1851.3C1903.55 1849 1893.46 1839.83 1894.21 1835.05C1894.39 1833.89 1895.19 1832.51 1897.96 1832.22C1899.98 1831.99 1901.88 1832.57 1903.49 1833.95C1908.85 1838.39 1910 1849.8 1910.06 1850.26C1910.12 1850.61 1909.95 1850.96 1909.66 1851.19C1909.49 1851.36 1909.31 1851.42 1909.08 1851.42ZM1898.77 1834.3C1898.59 1834.3 1898.36 1834.3 1898.19 1834.36C1896.4 1834.53 1896.29 1835.28 1896.23 1835.51C1895.77 1838.39 1902.63 1845.6 1907.87 1848.71C1907.35 1845.37 1905.8 1838.56 1902.28 1835.62C1901.19 1834.7 1900.03 1834.3 1898.77 1834.3Z" fill="#EF6D77"/>
<path d="M1955.65 1850.44H1913.29L1909.08 1752.39H1951.44L1955.65 1850.44Z" fill="#FFD2C8"/>
<path d="M2294.9 1706.8L2255.77 1721.04L2205.97 1633.19L2245.16 1618.95L2294.9 1706.8Z" fill="#FFD2C8"/>
<path d="M2249.6 1717.17L2282.68 1682.99C2283.89 1681.72 2285.8 1681.49 2287.29 1682.41L2320.15 1702.59C2323.55 1704.66 2324.07 1709.45 2321.24 1712.27C2309.48 1724.03 2303.2 1729.1 2288.62 1744.15C2279.69 1753.37 2253.06 1784.73 2240.67 1797.52C2228.56 1810.03 2214.04 1799.77 2217.96 1793.43C2235.54 1765.01 2246.14 1737.98 2246.66 1723.91C2246.78 1721.38 2247.81 1719.02 2249.6 1717.17Z" fill="#2B3A41"/>
<path d="M1913.58 1845.54H1959.8C1961.53 1845.54 1963.03 1846.75 1963.44 1848.42L1971.79 1886.06C1972.66 1889.98 1969.72 1893.67 1965.68 1893.61C1949.03 1893.32 1924.88 1892.34 1903.96 1892.34C1879.46 1892.34 1868.74 1893.67 1839.98 1893.67C1822.57 1893.67 1817.79 1876.09 1825.05 1874.47C1858.19 1867.21 1874.73 1866.46 1903.38 1848.82C1906.49 1846.92 1909.95 1845.54 1913.58 1845.54Z" fill="#2B3A41"/>
<path d="M1798.54 498.419C1792.02 514.847 1785.11 530.121 1777.96 545.8C1770.87 561.363 1763.21 576.695 1755.37 592.027C1739.34 622.519 1722.23 652.55 1700.9 681.716C1695.54 688.979 1689.78 696.184 1683.44 703.332C1680.27 706.963 1677.04 710.306 1673.24 714.053C1668.28 718.779 1663.5 722.18 1658.88 725.12C1649.66 730.941 1640.9 734.746 1632.2 738.319C1623.55 741.836 1614.97 744.718 1606.44 747.254C1572.31 757.283 1538.77 763.105 1504.13 766.275L1497.68 735.149C1528.51 723.967 1559.86 712.439 1588.74 699.527C1595.89 696.242 1602.92 692.783 1609.49 689.267C1616 685.751 1622.23 681.889 1626.84 678.258C1629.14 676.471 1630.99 674.684 1631.97 673.474C1633.99 671.168 1636.41 668.344 1638.6 665.519C1643.03 659.813 1647.41 653.645 1651.62 647.132C1660.21 634.336 1668.16 620.444 1675.83 606.322C1683.55 592.2 1690.93 577.733 1698.13 563.092C1712.49 533.868 1726.38 503.607 1739.17 474.095L1798.54 498.419Z" fill="#FFD2C8"/>
<path d="M1895.19 389.074C1956 384.348 2010.53 474.44 2010.53 474.44L1966.84 545.338C1966.84 545.338 1920.04 528.103 1880.5 493.865C1839.06 457.897 1853.7 392.302 1895.19 389.074Z" fill="#EF6D77"/>
<path opacity="0.3" d="M1891.39 464.987L1955.31 551.044L1952.43 554.56C1952.43 554.56 1930.41 537.038 1904.99 512.252L1891.39 464.987Z" fill="black"/>
<path d="M1726.72 456.223C1723.38 485.908 1773 617.214 1784.53 772.959L2009.89 750.767C2008.27 720.909 1991.79 595.31 1961.99 453.168C1953.75 413.973 1923.38 383.769 1884.13 391.666C1883.78 391.723 1883.38 391.839 1883.03 391.896C1854.67 397.718 1813.87 407.229 1789.78 415.817C1769.31 423.08 1750.24 432.418 1739.29 438.182C1732.31 441.698 1727.59 448.442 1726.72 456.223Z" fill="#EF6D77"/>
<path opacity="0.3" d="M1749.55 565.222C1753.35 581.073 1757.33 598.25 1761.25 616.522C1795.54 608.395 1788.91 532.367 1789.6 531.387L1749.55 565.222Z" fill="black"/>
<path d="M1800.15 470.867C1817.44 530.179 1753.41 609.32 1753.41 609.32L1688.97 567.819C1688.97 567.819 1688.51 513.521 1709.15 471.04C1735.25 417.261 1787.82 428.616 1800.15 470.867Z" fill="#EF6D77"/>
<path d="M1498.77 729.727L1472.89 726.211L1473.3 780.278C1473.3 780.278 1508.17 783.794 1527.53 759.816L1523.73 749.613C1519.69 738.892 1510.13 731.283 1498.77 729.727Z" fill="#FFD2C8"/>
<path d="M1428.46 738.663L1445 782.7L1473.3 780.279L1472.89 726.155L1428.46 738.663Z" fill="#FFD2C8"/>
<path opacity="0.2" d="M1909.08 1752.39L1911.45 1807.56H1953.81L1951.45 1752.39H1909.08Z" fill="black"/>
<path opacity="0.2" d="M2245.16 1618.95L2205.97 1633.25L2233.52 1681.84L2270.86 1664.26L2245.16 1618.95Z" fill="black"/>
<path d="M1831.45 254.136C1840.38 300.652 1847.93 327.397 1830.87 356.794C1805.17 401.062 1743.27 394.548 1720.67 351.664C1700.33 313.044 1689.15 243.472 1729.26 213.787C1768.8 184.563 1822.57 207.62 1831.45 254.136Z" fill="#FFD2C8"/>
<path d="M1753.12 285.147C1724.77 299.327 1724.13 254.021 1726.55 244.453C1715.89 254.655 1701.48 264.973 1675.31 253.675C1643.15 239.784 1652.26 203.47 1675.31 203.989C1675.31 203.989 1658.25 171.134 1695.89 167.618C1716.81 165.716 1741.6 174.65 1741.6 174.65C1741.6 174.65 1755.6 137.933 1789.72 155.744C1807.82 165.139 1822.17 192.922 1822.17 192.922C1822.17 192.922 1895.66 203.816 1855.77 242.262C1864.82 261.976 1860.04 326.072 1836.7 353.509C1826.49 365.498 1739.17 361.982 1753.12 285.147Z" fill="#263238"/>
<path d="M1766.89 282.553C1767.93 294.888 1763.9 307.281 1758.19 315.812C1749.55 328.665 1737.79 323.132 1733.93 309.586C1730.47 297.367 1730.81 276.04 1742.51 267.97C1754.04 259.958 1765.68 268.431 1766.89 282.553Z" fill="#FFD2C8"/>
<path d="M1864.41 765.064C1864.41 765.064 1943.95 1082.43 1982.05 1200.48C2023.78 1329.77 2204.87 1668.87 2204.87 1668.87L2275.94 1637.97C2275.94 1637.97 2138.88 1329.19 2109.6 1200.02C2077.84 1059.78 2009.77 750.77 2009.77 750.77L1864.41 765.064Z" fill="#2B3A41"/>
<path d="M2183.89 1645.53C2183.6 1645.64 2207.18 1678.84 2207.18 1678.84L2287 1643.57L2270.87 1610.54L2183.89 1645.53Z" fill="#EF6D77"/>
<path opacity="0.3" d="M1905.97 876.829C1962.34 882.248 1976.81 1089 1980.55 1195.76C1957.21 1122.38 1919.69 980.41 1893.64 879.539C1897.15 877.348 1901.25 876.368 1905.97 876.829Z" fill="black"/>
<path d="M1784.47 772.962C1784.47 772.962 1793.64 1098.75 1810.87 1226.82C1828.79 1360.03 1895.08 1786.11 1895.08 1786.11H1966.78C1966.78 1786.11 1950.23 1356 1940.49 1224.4C1929.89 1080.94 1932.66 758.437 1932.66 758.437L1784.47 772.962Z" fill="#2B3A41"/>
<path d="M1880.78 1752.39C1880.44 1752.39 1886.49 1795.79 1886.49 1795.79L1973.69 1792.8L1974.5 1752.33L1880.78 1752.39Z" fill="#EF6D77"/>
</g>
<path d="M3024 1887.44H142.188V1888.89H3024V1887.44Z" fill="#EBEBEB"/>
<path d="M785.755 1935.75H594.863V1937.19H785.755V1935.75Z" fill="#EBEBEB"/>
<path d="M1084.54 1977.36H910.653V1978.8H1084.54V1977.36Z" fill="#EBEBEB"/>
<path d="M690.307 1989.29H469.848V1990.74H690.307V1989.29Z" fill="#EBEBEB"/>
<path d="M2735.24 1986.18H2643.6V1987.62H2735.24V1986.18Z" fill="#EBEBEB"/>
<path d="M2625.1 1986.18H2398.47V1987.62H2625.1V1986.18Z" fill="#EBEBEB"/>
<path d="M1757.9 1935.05H1583.09V1936.5H1757.9V1935.05Z" fill="#EBEBEB"/>
<path d="M2198.42 1935.05H1782.86V1936.5H2198.42V1935.05Z" fill="#EBEBEB"/>
<defs>
<filter id="filter0_d" x="302.66" y="524.279" width="1612" height="1383.11" filterUnits="userSpaceOnUse" color-interpolation-filters="sRGB">
<feFlood flood-opacity="0" result="BackgroundImageFix"/>
<feColorMatrix in="SourceAlpha" type="matrix" values="0 0 0 0 0 0 0 0 0 0 0 0 0 0 0 0 0 0 127 0"/>
<feOffset dy="4"/>
<feGaussianBlur stdDeviation="12.5"/>
<feColorMatrix type="matrix" values="0 0 0 0 0 0 0 0 0 0 0 0 0 0 0 0 0 0 0.25 0"/>
<feBlend mode="normal" in2="BackgroundImageFix" result="effect1_dropShadow"/>
<feBlend mode="normal" in="SourceGraphic" in2="effect1_dropShadow" result="shape"/>
</filter>
<filter id="filter1_d" x="1403.46" y="129.868" width="944.613" height="2086.82" filterUnits="userSpaceOnUse" color-interpolation-filters="sRGB">
<feFlood flood-opacity="0" result="BackgroundImageFix"/>
<feColorMatrix in="SourceAlpha" type="matrix" values="0 0 0 0 0 0 0 0 0 0 0 0 0 0 0 0 0 0 127 0"/>
<feOffset dy="4"/>
<feGaussianBlur stdDeviation="12.5"/>
<feColorMatrix type="matrix" values="0 0 0 0 0 0 0 0 0 0 0 0 0 0 0 0 0 0 0.25 0"/>
<feBlend mode="normal" in2="BackgroundImageFix" result="effect1_dropShadow"/>
<feBlend mode="normal" in="SourceGraphic" in2="effect1_dropShadow" result="shape"/>
</filter>
</defs>
</svg>
